<svg width="28" height="29" viewBox="0 0 28 29" fill="none" xmlns="http://www.w3.org/2000/svg">
<path d="M14.0031 7.00313C10.0303 7.00313 6.82588 10.2261 6.82588 14.2218C6.82588 18.2175 10.0303 21.4404 14.0031 21.4404C17.9759 21.4404 21.1804 18.2175 21.1804 14.2218C21.1804 10.2261 17.9759 7.00313 14.0031 7.00313ZM14.0031 18.9148C11.4358 18.9148 9.33698 16.8102 9.33698 14.2218C9.33698 11.6334 11.4296 9.52872 14.0031 9.52872C16.5767 9.52872 18.6693 11.6334 18.6693 14.2218C18.6693 16.8102 16.5704 18.9148 14.0031 18.9148ZM23.148 6.70785C23.148 7.64395 22.3984 8.39158 21.474 8.39158C20.5432 8.39158 19.7999 7.63767 19.7999 6.70785C19.7999 5.77804 20.5495 5.02413 21.474 5.02413C22.3984 5.02413 23.148 5.77804 23.148 6.70785ZM27.9016 8.41671C27.7954 6.16127 27.2832 4.16342 25.6404 2.51739C24.0038 0.871364 22.0174 0.356195 19.7749 0.243109C17.4637 0.111176 10.5363 0.111176 8.2251 0.243109C5.98885 0.349913 4.00245 0.865082 2.35962 2.51111C0.716788 4.15714 0.21082 6.15499 0.0983826 8.41042C-0.0327942 10.735 -0.0327942 17.7023 0.0983826 20.0269C0.204573 22.2823 0.716788 24.2801 2.35962 25.9262C4.00245 27.5722 5.9826 28.0874 8.2251 28.2005C10.5363 28.3324 17.4637 28.3324 19.7749 28.2005C22.0174 28.0937 24.0038 27.5785 25.6404 25.9262C27.277 24.2801 27.7892 22.2823 27.9016 20.0269C28.0328 17.7023 28.0328 10.7413 27.9016 8.41671ZM24.9158 22.521C24.4286 23.7524 23.4853 24.7011 22.2548 25.1974C20.412 25.9325 16.0395 25.7628 14.0031 25.7628C11.9668 25.7628 7.58795 25.9262 5.75148 25.1974C4.52716 24.7074 3.58394 23.7587 3.09046 22.521C2.35962 20.6677 2.52828 16.2699 2.52828 14.2218C2.52828 12.1737 2.36587 7.7696 3.09046 5.92253C3.57769 4.69115 4.52091 3.74249 5.75148 3.24617C7.5942 2.51111 11.9668 2.68074 14.0031 2.68074C16.0395 2.68074 20.4183 2.51739 22.2548 3.24617C23.4791 3.73621 24.4223 4.68487 24.9158 5.92253C25.6466 7.77589 25.478 12.1737 25.478 14.2218C25.478 16.2699 25.6466 20.674 24.9158 22.521Z" fill="white"/>
</svg>
